<?xml version="1.0" encoding="UTF-8"?>
<svg xmlns="http://www.w3.org/2000/svg" xmlns:xlink="http://www.w3.org/1999/xlink" width="756pt" height="432pt" viewBox="0 0 756 432" version="1.1">
<g id="surface134">
<rect x="0" y="0" width="756" height="432" style="fill:rgb(100%,100%,100%);fill-opacity:1;stroke:none;"/>
<path style="fill:none;stroke-width:1.066978;stroke-linecap:butt;stroke-linejoin:round;stroke:rgb(100%,91.764706%,27.45098%);stroke-opacity:0.8;stroke-miterlimit:10;" d="M 368.617188 223.761719 L 368.617188 217.539063 "/>
<path style="fill:none;stroke-width:1.066978;stroke-linecap:butt;stroke-linejoin:round;stroke:rgb(96.862745%,87.058824%,29.803922%);stroke-opacity:0.8;stroke-miterlimit:10;" d="M 191.488281 213.058594 L 191.488281 148.097656 "/>
<path style="fill:none;stroke-width:1.066978;stroke-linecap:butt;stroke-linejoin:round;stroke:rgb(64.705882%,61.176471%,46.27451%);stroke-opacity:0.8;stroke-miterlimit:10;" d="M 446.464844 423.492188 L 446.464844 248.058594 "/>
<path style="fill:none;stroke-width:1.066978;stroke-linecap:butt;stroke-linejoin:round;stroke:rgb(95.294118%,85.882353%,30.980392%);stroke-opacity:0.8;stroke-miterlimit:10;" d="M 390.695313 298.929688 L 390.695313 226.191406 "/>
<path style="fill:none;stroke-width:1.066978;stroke-linecap:butt;stroke-linejoin:round;stroke:rgb(100%,91.764706%,27.45098%);stroke-opacity:0.8;stroke-miterlimit:10;" d="M 308.539063 202.558594 L 308.539063 193.984375 "/>
<path style="fill:none;stroke-width:1.066978;stroke-linecap:butt;stroke-linejoin:round;stroke:rgb(99.607843%,89.411765%,27.058824%);stroke-opacity:0.8;stroke-miterlimit:10;" d="M 396.078125 276.492188 L 396.078125 228.304688 "/>
<path style="fill:none;stroke-width:1.066978;stroke-linecap:butt;stroke-linejoin:round;stroke:rgb(100%,91.372549%,26.666667%);stroke-opacity:0.8;stroke-miterlimit:10;" d="M 389.488281 204.109375 L 389.488281 225.71875 "/>
<path style="fill:none;stroke-width:1.066978;stroke-linecap:butt;stroke-linejoin:round;stroke:rgb(65.098039%,61.568627%,45.882353%);stroke-opacity:0.8;stroke-miterlimit:10;" d="M 276.535156 356.140625 L 276.535156 181.441406 "/>
<path style="fill:none;stroke-width:1.066978;stroke-linecap:butt;stroke-linejoin:round;stroke:rgb(100%,91.764706%,27.058824%);stroke-opacity:0.8;stroke-miterlimit:10;" d="M 477.199219 248.949219 L 477.199219 260.105469 "/>
<path style="fill:none;stroke-width:1.066978;stroke-linecap:butt;stroke-linejoin:round;stroke:rgb(62.745098%,59.607843%,46.666667%);stroke-opacity:0.8;stroke-miterlimit:10;" d="M 575.421875 118.113281 L 575.421875 298.613281 "/>
<path style="fill:none;stroke-width:1.066978;stroke-linecap:butt;stroke-linejoin:round;stroke:rgb(60.392157%,57.647059%,46.666667%);stroke-opacity:0.8;stroke-miterlimit:10;" d="M 294.808594 374.671875 L 294.808594 188.605469 "/>
<path style="fill:none;stroke-width:1.066978;stroke-linecap:butt;stroke-linejoin:round;stroke:rgb(95.686275%,86.27451%,30.588235%);stroke-opacity:0.8;stroke-miterlimit:10;" d="M 250.773438 243.152344 L 250.773438 171.339844 "/>
<path style="fill:none;stroke-width:1.066978;stroke-linecap:butt;stroke-linejoin:round;stroke:rgb(96.470588%,86.666667%,30.196078%);stroke-opacity:0.8;stroke-miterlimit:10;" d="M 396.578125 296.550781 L 396.578125 228.5 "/>
<path style="fill:none;stroke-width:1.066978;stroke-linecap:butt;stroke-linejoin:round;stroke:rgb(90.196078%,81.960784%,34.901961%);stroke-opacity:0.8;stroke-miterlimit:10;" d="M 303.363281 289.347656 L 303.363281 191.957031 "/>
<path style="fill:none;stroke-width:1.066978;stroke-linecap:butt;stroke-linejoin:round;stroke:rgb(90.196078%,81.960784%,34.901961%);stroke-opacity:0.8;stroke-miterlimit:10;" d="M 586.25 206.496094 L 586.25 302.855469 "/>
<path style="fill:none;stroke-width:1.066978;stroke-linecap:butt;stroke-linejoin:round;stroke:rgb(100%,91.372549%,26.666667%);stroke-opacity:0.8;stroke-miterlimit:10;" d="M 292.230469 168.617188 L 292.230469 187.59375 "/>
<path style="fill:none;stroke-width:1.066978;stroke-linecap:butt;stroke-linejoin:round;stroke:rgb(98.431373%,88.627451%,28.235294%);stroke-opacity:0.8;stroke-miterlimit:10;" d="M 464.363281 202.253906 L 464.363281 255.074219 "/>
<path style="fill:none;stroke-width:1.066978;stroke-linecap:butt;stroke-linejoin:round;stroke:rgb(100%,91.764706%,27.058824%);stroke-opacity:0.8;stroke-miterlimit:10;" d="M 561.324219 280.609375 L 561.324219 293.085938 "/>
<path style="fill:none;stroke-width:1.066978;stroke-linecap:butt;stroke-linejoin:round;stroke:rgb(45.882353%,45.882353%,45.882353%);stroke-opacity:0.8;stroke-miterlimit:10;" d="M 721.105469 134.714844 L 721.105469 355.722656 "/>
<path style="fill:none;stroke-width:1.066978;stroke-linecap:butt;stroke-linejoin:round;stroke:rgb(99.215686%,89.019608%,27.45098%);stroke-opacity:0.8;stroke-miterlimit:10;" d="M 419.148438 285.847656 L 419.148438 237.347656 "/>
<path style="fill:none;stroke-width:1.066978;stroke-linecap:butt;stroke-linejoin:round;stroke:rgb(94.901961%,85.490196%,31.372549%);stroke-opacity:0.8;stroke-miterlimit:10;" d="M 608.148438 235.777344 L 608.148438 311.441406 "/>
<path style="fill:none;stroke-width:1.066978;stroke-linecap:butt;stroke-linejoin:round;stroke:rgb(98.039216%,88.235294%,28.627451%);stroke-opacity:0.8;stroke-miterlimit:10;" d="M 443.539063 304.058594 L 443.539063 246.910156 "/>
<path style="fill:none;stroke-width:1.066978;stroke-linecap:butt;stroke-linejoin:round;stroke:rgb(96.862745%,87.058824%,29.803922%);stroke-opacity:0.8;stroke-miterlimit:10;" d="M 384.226563 287.925781 L 384.226563 223.65625 "/>
<path style="fill:none;stroke-width:1.066978;stroke-linecap:butt;stroke-linejoin:round;stroke:rgb(100%,90.588235%,25.882353%);stroke-opacity:0.8;stroke-miterlimit:10;" d="M 419.347656 269.105469 L 419.347656 237.425781 "/>
<path style="fill:none;stroke-width:1.066978;stroke-linecap:butt;stroke-linejoin:round;stroke:rgb(99.215686%,89.019608%,27.45098%);stroke-opacity:0.8;stroke-miterlimit:10;" d="M 563.71875 244.023438 L 563.71875 294.023438 "/>
<path style="fill:none;stroke-width:1.066978;stroke-linecap:butt;stroke-linejoin:round;stroke:rgb(100%,90.980392%,26.27451%);stroke-opacity:0.8;stroke-miterlimit:10;" d="M 402.03125 260.554688 L 402.03125 230.636719 "/>
<path style="fill:none;stroke-width:1.066978;stroke-linecap:butt;stroke-linejoin:round;stroke:rgb(100%,91.764706%,27.058824%);stroke-opacity:0.8;stroke-miterlimit:10;" d="M 354.160156 200.914063 L 354.160156 211.871094 "/>
<path style="fill:none;stroke-width:1.066978;stroke-linecap:butt;stroke-linejoin:round;stroke:rgb(90.196078%,81.960784%,34.901961%);stroke-opacity:0.8;stroke-miterlimit:10;" d="M 260.058594 271.929688 L 260.058594 174.980469 "/>
<path style="fill:none;stroke-width:1.066978;stroke-linecap:butt;stroke-linejoin:round;stroke:rgb(27.45098%,31.372549%,41.960784%);stroke-opacity:0.8;stroke-miterlimit:10;" d="M 122.027344 379.671875 L 122.027344 120.867188 "/>
<path style="fill:none;stroke-width:1.066978;stroke-linecap:butt;stroke-linejoin:round;stroke:rgb(60.392157%,57.647059%,46.666667%);stroke-opacity:0.8;stroke-miterlimit:10;" d="M 537.171875 97.414063 L 537.171875 283.617188 "/>
<path style="fill:none;stroke-width:1.066978;stroke-linecap:butt;stroke-linejoin:round;stroke:rgb(95.294118%,85.882353%,30.980392%);stroke-opacity:0.8;stroke-miterlimit:10;" d="M 284.140625 257.300781 L 284.140625 184.421875 "/>
<path style="fill:none;stroke-width:1.066978;stroke-linecap:butt;stroke-linejoin:round;stroke:rgb(95.294118%,85.882353%,30.980392%);stroke-opacity:0.8;stroke-miterlimit:10;" d="M 432.710938 316.722656 L 432.710938 242.664063 "/>
<path style="fill:none;stroke-width:1.066978;stroke-linecap:butt;stroke-linejoin:round;stroke:rgb(97.647059%,87.843137%,29.019608%);stroke-opacity:0.8;stroke-miterlimit:10;" d="M 479.308594 202.261719 L 479.308594 260.929688 "/>
<path style="fill:none;stroke-width:1.066978;stroke-linecap:butt;stroke-linejoin:round;stroke:rgb(96.470588%,86.666667%,30.196078%);stroke-opacity:0.8;stroke-miterlimit:10;" d="M 505.515625 203.613281 L 505.515625 271.207031 "/>
<path style="fill:none;stroke-width:1.066978;stroke-linecap:butt;stroke-linejoin:round;stroke:rgb(60.784314%,58.039216%,46.666667%);stroke-opacity:0.8;stroke-miterlimit:10;" d="M 248.464844 356.125 L 248.464844 170.433594 "/>
<path style="fill:none;stroke-width:1.066978;stroke-linecap:butt;stroke-linejoin:round;stroke:rgb(23.529412%,29.019608%,41.960784%);stroke-opacity:0.8;stroke-miterlimit:10;" d="M 648.515625 62.605469 L 648.515625 327.265625 "/>
<path style="fill:none;stroke-width:1.066978;stroke-linecap:butt;stroke-linejoin:round;stroke:rgb(68.235294%,63.921569%,45.490196%);stroke-opacity:0.8;stroke-miterlimit:10;" d="M 650.015625 160.785156 L 650.015625 327.855469 "/>
<path style="fill:none;stroke-width:1.066978;stroke-linecap:butt;stroke-linejoin:round;stroke:rgb(81.568627%,74.509804%,40.392157%);stroke-opacity:0.8;stroke-miterlimit:10;" d="M 574.867188 169.386719 L 574.867188 298.394531 "/>
<path style="fill:none;stroke-width:1.066978;stroke-linecap:butt;stroke-linejoin:round;stroke:rgb(100%,91.764706%,27.45098%);stroke-opacity:0.8;stroke-miterlimit:10;" d="M 472.679688 260.296875 L 472.679688 258.332031 "/>
<path style="fill:none;stroke-width:1.066978;stroke-linecap:butt;stroke-linejoin:round;stroke:rgb(100%,91.764706%,27.058824%);stroke-opacity:0.8;stroke-miterlimit:10;" d="M 387.019531 234.75 L 387.019531 224.753906 "/>
<path style="fill:none;stroke-width:1.066978;stroke-linecap:butt;stroke-linejoin:round;stroke:rgb(98.823529%,89.019608%,27.843137%);stroke-opacity:0.8;stroke-miterlimit:10;" d="M 473.878906 207.765625 L 473.878906 258.804688 "/>
<path style="fill:none;stroke-width:1.066978;stroke-linecap:butt;stroke-linejoin:round;stroke:rgb(90.980392%,82.352941%,34.901961%);stroke-opacity:0.8;stroke-miterlimit:10;" d="M 504.453125 175.800781 L 504.453125 270.789063 "/>
<path style="fill:none;stroke-width:1.066978;stroke-linecap:butt;stroke-linejoin:round;stroke:rgb(100%,90.980392%,26.27451%);stroke-opacity:0.8;stroke-miterlimit:10;" d="M 548.875 262.484375 L 548.875 288.203125 "/>
<path style="fill:none;stroke-width:1.066978;stroke-linecap:butt;stroke-linejoin:round;stroke:rgb(98.039216%,88.235294%,28.627451%);stroke-opacity:0.8;stroke-miterlimit:10;" d="M 325.1875 257.738281 L 325.1875 200.511719 "/>
<path style="fill:none;stroke-width:1.066978;stroke-linecap:butt;stroke-linejoin:round;stroke:rgb(93.72549%,84.313725%,32.54902%);stroke-opacity:0.8;stroke-miterlimit:10;" d="M 334.796875 286.347656 L 334.796875 204.277344 "/>
<path style="fill:none;stroke-width:1.066978;stroke-linecap:butt;stroke-linejoin:round;stroke:rgb(94.509804%,85.098039%,31.764706%);stroke-opacity:0.8;stroke-miterlimit:10;" d="M 353.839844 289.738281 L 353.839844 211.746094 "/>
<path style="fill:none;stroke-width:1.066978;stroke-linecap:butt;stroke-linejoin:round;stroke:rgb(92.54902%,83.529412%,33.333333%);stroke-opacity:0.8;stroke-miterlimit:10;" d="M 235.980469 252.054688 L 235.980469 165.539063 "/>
<path style="fill:none;stroke-width:1.066978;stroke-linecap:butt;stroke-linejoin:round;stroke:rgb(91.764706%,82.745098%,34.117647%);stroke-opacity:0.8;stroke-miterlimit:10;" d="M 460.917969 163.132813 L 460.917969 253.722656 "/>
<path style="fill:none;stroke-width:1.066978;stroke-linecap:butt;stroke-linejoin:round;stroke:rgb(100%,91.372549%,26.666667%);stroke-opacity:0.8;stroke-miterlimit:10;" d="M 468.433594 238.484375 L 468.433594 256.667969 "/>
<path style="fill:none;stroke-width:1.066978;stroke-linecap:butt;stroke-linejoin:round;stroke:rgb(91.764706%,82.745098%,34.117647%);stroke-opacity:0.8;stroke-miterlimit:10;" d="M 614.574219 223.917969 L 614.574219 313.960938 "/>
<path style="fill:none;stroke-width:1.066978;stroke-linecap:butt;stroke-linejoin:round;stroke:rgb(97.254902%,87.45098%,29.411765%);stroke-opacity:0.8;stroke-miterlimit:10;" d="M 306.316406 256.6875 L 306.316406 193.113281 "/>
<path style="fill:none;stroke-width:1.066978;stroke-linecap:butt;stroke-linejoin:round;stroke:rgb(67.058824%,62.745098%,45.490196%);stroke-opacity:0.8;stroke-miterlimit:10;" d="M 232.761719 334.554688 L 232.761719 164.277344 "/>
<path style="fill:none;stroke-width:1.066978;stroke-linecap:butt;stroke-linejoin:round;stroke:rgb(98.823529%,89.019608%,27.843137%);stroke-opacity:0.8;stroke-miterlimit:10;" d="M 541.425781 233.457031 L 541.425781 285.285156 "/>
<path style="fill:none;stroke-width:1.066978;stroke-linecap:butt;stroke-linejoin:round;stroke:rgb(100%,90.196078%,25.882353%);stroke-opacity:0.8;stroke-miterlimit:10;" d="M 466.945313 293.738281 L 466.945313 256.085938 "/>
<path style="fill:none;stroke-width:1.066978;stroke-linecap:butt;stroke-linejoin:round;stroke:rgb(81.960784%,74.901961%,40%);stroke-opacity:0.8;stroke-miterlimit:10;" d="M 296.84375 317.023438 L 296.84375 189.402344 "/>
<path style="fill:none;stroke-width:1.066978;stroke-linecap:butt;stroke-linejoin:round;stroke:rgb(100%,91.764706%,27.058824%);stroke-opacity:0.8;stroke-miterlimit:10;" d="M 450.742188 261.195313 L 450.742188 249.734375 "/>
<path style="fill:none;stroke-width:1.066978;stroke-linecap:butt;stroke-linejoin:round;stroke:rgb(78.431373%,72.156863%,41.568627%);stroke-opacity:0.8;stroke-miterlimit:10;" d="M 528.195313 142.144531 L 528.195313 280.097656 "/>
<path style="fill:none;stroke-width:1.066978;stroke-linecap:butt;stroke-linejoin:round;stroke:rgb(100%,91.764706%,27.45098%);stroke-opacity:0.8;stroke-miterlimit:10;" d="M 306.160156 190.371094 L 306.160156 193.054688 "/>
<path style="fill:none;stroke-width:1.066978;stroke-linecap:butt;stroke-linejoin:round;stroke:rgb(86.666667%,78.823529%,37.254902%);stroke-opacity:0.8;stroke-miterlimit:10;" d="M 589.402344 193.117188 L 589.402344 304.089844 "/>
<path style="fill:none;stroke-width:1.066978;stroke-linecap:butt;stroke-linejoin:round;stroke:rgb(100%,91.372549%,26.666667%);stroke-opacity:0.8;stroke-miterlimit:10;" d="M 428.140625 261.855469 L 428.140625 240.875 "/>
<path style="fill:none;stroke-width:1.066978;stroke-linecap:butt;stroke-linejoin:round;stroke:rgb(0%,12.54902%,30.196078%);stroke-opacity:0.8;stroke-miterlimit:10;" d="M 40.207031 391.050781 L 40.207031 88.792969 "/>
<path style="fill:none;stroke-width:1.066978;stroke-linecap:butt;stroke-linejoin:round;stroke:rgb(12.156863%,23.529412%,42.745098%);stroke-opacity:0.8;stroke-miterlimit:10;" d="M 73.582031 379.289063 L 73.582031 101.875 "/>
<path style="fill:none;stroke-width:1.066978;stroke-linecap:butt;stroke-linejoin:round;stroke:rgb(100%,89.803922%,26.27451%);stroke-opacity:0.8;stroke-miterlimit:10;" d="M 438.097656 204.453125 L 438.097656 244.777344 "/>
<path style="fill:none;stroke-width:1.066978;stroke-linecap:butt;stroke-linejoin:round;stroke:rgb(100%,90.588235%,25.882353%);stroke-opacity:0.8;stroke-miterlimit:10;" d="M 291.429688 222.199219 L 291.429688 187.277344 "/>
<path style="fill:none;stroke-width:1.066978;stroke-linecap:butt;stroke-linejoin:round;stroke:rgb(92.156863%,83.137255%,33.72549%);stroke-opacity:0.8;stroke-miterlimit:10;" d="M 333.488281 293.121094 L 333.488281 203.765625 "/>
<path style="fill:none;stroke-width:1.066978;stroke-linecap:butt;stroke-linejoin:round;stroke:rgb(98.823529%,88.627451%,27.843137%);stroke-opacity:0.8;stroke-miterlimit:10;" d="M 408.90625 180.777344 L 408.90625 233.332031 "/>
<path style="fill:none;stroke-width:1.066978;stroke-linecap:butt;stroke-linejoin:round;stroke:rgb(100%,90.196078%,25.882353%);stroke-opacity:0.8;stroke-miterlimit:10;" d="M 373.109375 257.910156 L 373.109375 219.296875 "/>
<path style="fill:none;stroke-width:1.066978;stroke-linecap:butt;stroke-linejoin:round;stroke:rgb(67.058824%,62.745098%,45.490196%);stroke-opacity:0.8;stroke-miterlimit:10;" d="M 281.054688 353.9375 L 281.054688 183.210938 "/>
<path style="fill:none;stroke-width:1.066978;stroke-linecap:butt;stroke-linejoin:round;stroke:rgb(80.784314%,73.72549%,40.784314%);stroke-opacity:0.8;stroke-miterlimit:10;" d="M 240.878906 299.238281 L 240.878906 167.460938 "/>
<path style="fill:none;stroke-width:1.066978;stroke-linecap:butt;stroke-linejoin:round;stroke:rgb(100%,89.803922%,26.666667%);stroke-opacity:0.8;stroke-miterlimit:10;" d="M 343.269531 250.824219 L 343.269531 207.601563 "/>
<path style="fill:none;stroke-width:1.066978;stroke-linecap:butt;stroke-linejoin:round;stroke:rgb(90.588235%,81.960784%,34.901961%);stroke-opacity:0.8;stroke-miterlimit:10;" d="M 642.464844 228.878906 L 642.464844 324.894531 "/>
<path style="fill:none;stroke-width:1.066978;stroke-linecap:butt;stroke-linejoin:round;stroke:rgb(97.254902%,87.45098%,29.411765%);stroke-opacity:0.8;stroke-miterlimit:10;" d="M 582.144531 237.503906 L 582.144531 301.246094 "/>
<path style="fill:none;stroke-width:1.066978;stroke-linecap:butt;stroke-linejoin:round;stroke:rgb(100%,90.588235%,25.882353%);stroke-opacity:0.8;stroke-miterlimit:10;" d="M 381.601563 190.265625 L 381.601563 222.628906 "/>
<path style="fill:none;stroke-width:1.066978;stroke-linecap:butt;stroke-linejoin:round;stroke:rgb(100%,91.764706%,27.058824%);stroke-opacity:0.8;stroke-miterlimit:10;" d="M 341.980469 196.933594 L 341.980469 207.09375 "/>
<path style="fill:none;stroke-width:1.066978;stroke-linecap:butt;stroke-linejoin:round;stroke:rgb(88.627451%,80.392157%,36.078431%);stroke-opacity:0.8;stroke-miterlimit:10;" d="M 113.027344 221.675781 L 113.027344 117.339844 "/>
<path style="fill:none;stroke-width:1.066978;stroke-linecap:butt;stroke-linejoin:round;stroke:rgb(87.058824%,79.215686%,37.254902%);stroke-opacity:0.8;stroke-miterlimit:10;" d="M 354.246094 321.382813 L 354.246094 211.902344 "/>
<path style="fill:none;stroke-width:1.066978;stroke-linecap:butt;stroke-linejoin:round;stroke:rgb(100%,90.980392%,26.27451%);stroke-opacity:0.8;stroke-miterlimit:10;" d="M 467.800781 229.6875 L 467.800781 256.421875 "/>
<path style="fill:none;stroke-width:1.066978;stroke-linecap:butt;stroke-linejoin:round;stroke:rgb(88.235294%,80%,36.470588%);stroke-opacity:0.8;stroke-miterlimit:10;" d="M 197.167969 256.21875 L 197.167969 150.324219 "/>
<path style="fill:none;stroke-width:1.066978;stroke-linecap:butt;stroke-linejoin:round;stroke:rgb(92.156863%,83.137255%,33.72549%);stroke-opacity:0.8;stroke-miterlimit:10;" d="M 493.011719 176.820313 L 493.011719 266.304688 "/>
<path style="fill:none;stroke-width:1.066978;stroke-linecap:butt;stroke-linejoin:round;stroke:rgb(100%,89.803922%,26.666667%);stroke-opacity:0.8;stroke-miterlimit:10;" d="M 501.652344 227.539063 L 501.652344 269.691406 "/>
<path style="fill:none;stroke-width:1.066978;stroke-linecap:butt;stroke-linejoin:round;stroke:rgb(98.039216%,88.235294%,28.627451%);stroke-opacity:0.8;stroke-miterlimit:10;" d="M 206.019531 211.480469 L 206.019531 153.796875 "/>
<path style="fill:none;stroke-width:1.066978;stroke-linecap:butt;stroke-linejoin:round;stroke:rgb(49.411765%,49.019608%,47.058824%);stroke-opacity:0.8;stroke-miterlimit:10;" d="M 534.003906 70.121094 L 534.003906 282.375 "/>
<path style="fill:none;stroke-width:1.066978;stroke-linecap:butt;stroke-linejoin:round;stroke:rgb(95.686275%,86.27451%,30.588235%);stroke-opacity:0.8;stroke-miterlimit:10;" d="M 324.160156 270.894531 L 324.160156 200.109375 "/>
<path style="fill:none;stroke-width:1.066978;stroke-linecap:butt;stroke-linejoin:round;stroke:rgb(75.686275%,69.803922%,42.745098%);stroke-opacity:0.8;stroke-miterlimit:10;" d="M 301.222656 337.515625 L 301.222656 191.117188 "/>
<path style="fill:none;stroke-width:1.066978;stroke-linecap:butt;stroke-linejoin:round;stroke:rgb(98.823529%,88.627451%,27.843137%);stroke-opacity:0.8;stroke-miterlimit:10;" d="M 502.511719 217.769531 L 502.511719 270.027344 "/>
<path style="fill:none;stroke-width:1.066978;stroke-linecap:butt;stroke-linejoin:round;stroke:rgb(91.764706%,82.745098%,34.117647%);stroke-opacity:0.8;stroke-miterlimit:10;" d="M 427.613281 331.050781 L 427.613281 240.667969 "/>
<path style="fill:none;stroke-width:1.066978;stroke-linecap:butt;stroke-linejoin:round;stroke:rgb(100%,90.588235%,25.882353%);stroke-opacity:0.8;stroke-miterlimit:10;" d="M 315.078125 227.242188 L 315.078125 196.550781 "/>
<path style="fill:none;stroke-width:1.066978;stroke-linecap:butt;stroke-linejoin:round;stroke:rgb(49.803922%,49.019608%,47.058824%);stroke-opacity:0.8;stroke-miterlimit:10;" d="M 193.519531 360.753906 L 193.519531 148.894531 "/>
<path style="fill:none;stroke-width:1.066978;stroke-linecap:butt;stroke-linejoin:round;stroke:rgb(88.235294%,80%,36.470588%);stroke-opacity:0.8;stroke-miterlimit:10;" d="M 510.824219 167.5625 L 510.824219 273.289063 "/>
<path style="fill:none;stroke-width:1.066978;stroke-linecap:butt;stroke-linejoin:round;stroke:rgb(69.803922%,65.098039%,44.705882%);stroke-opacity:0.8;stroke-miterlimit:10;" d="M 206.996094 316.621094 L 206.996094 154.175781 "/>
<path style="fill:none;stroke-width:1.066978;stroke-linecap:butt;stroke-linejoin:round;stroke:rgb(44.313725%,44.313725%,45.490196%);stroke-opacity:0.8;stroke-miterlimit:10;" d="M 87.496094 331.980469 L 87.496094 107.332031 "/>
<path style="fill:none;stroke-width:1.066978;stroke-linecap:butt;stroke-linejoin:round;stroke:rgb(100%,91.764706%,27.45098%);stroke-opacity:0.8;stroke-miterlimit:10;" d="M 516.308594 266.152344 L 516.308594 275.4375 "/>
<path style="fill:none;stroke-width:1.066978;stroke-linecap:butt;stroke-linejoin:round;stroke:rgb(95.686275%,86.27451%,30.588235%);stroke-opacity:0.8;stroke-miterlimit:10;" d="M 501.089844 198.730469 L 501.089844 269.46875 "/>
<path style="fill:none;stroke-width:1.066978;stroke-linecap:butt;stroke-linejoin:round;stroke:rgb(100%,91.764706%,27.45098%);stroke-opacity:0.8;stroke-miterlimit:10;" d="M 456.804688 246.066406 L 456.804688 252.109375 "/>
<path style="fill:none;stroke-width:1.066978;stroke-linecap:butt;stroke-linejoin:round;stroke:rgb(12.941176%,23.921569%,42.745098%);stroke-opacity:0.8;stroke-miterlimit:10;" d="M 23.234375 358.996094 L 23.234375 82.136719 "/>
<path style="fill:none;stroke-width:1.066978;stroke-linecap:butt;stroke-linejoin:round;stroke:rgb(96.862745%,87.058824%,29.803922%);stroke-opacity:0.8;stroke-miterlimit:10;" d="M 330.410156 268.621094 L 330.410156 202.558594 "/>
<path style="fill:none;stroke-width:1.066978;stroke-linecap:butt;stroke-linejoin:round;stroke:rgb(100%,90.588235%,25.882353%);stroke-opacity:0.8;stroke-miterlimit:10;" d="M 384.050781 191.339844 L 384.050781 223.589844 "/>
<path style="fill:none;stroke-width:1.066978;stroke-linecap:butt;stroke-linejoin:round;stroke:rgb(100%,91.372549%,26.666667%);stroke-opacity:0.8;stroke-miterlimit:10;" d="M 550.144531 267.730469 L 550.144531 288.703125 "/>
<path style="fill:none;stroke-width:1.066978;stroke-linecap:butt;stroke-linejoin:round;stroke:rgb(100%,91.764706%,27.45098%);stroke-opacity:0.8;stroke-miterlimit:10;" d="M 416.890625 244.8125 L 416.890625 236.460938 "/>
<path style="fill:none;stroke-width:1.066978;stroke-linecap:butt;stroke-linejoin:round;stroke:rgb(68.235294%,63.921569%,45.490196%);stroke-opacity:0.8;stroke-miterlimit:10;" d="M 180.988281 310.867188 L 180.988281 143.980469 "/>
<path style="fill-rule:nonzero;fill:rgb(18.431373%,30.980392%,30.980392%);fill-opacity:0.901961;stroke-width:0.708661;stroke-linecap:round;stroke-linejoin:round;stroke:rgb(18.431373%,30.980392%,30.980392%);stroke-opacity:0.901961;stroke-miterlimit:10;" d="M 374.308594 223.761719 C 374.308594 226.90625 371.761719 229.453125 368.617188 229.453125 C 365.476563 229.453125 362.929688 226.90625 362.929688 223.761719 C 362.929688 220.621094 365.476563 218.074219 368.617188 218.074219 C 371.761719 218.074219 374.308594 220.621094 374.308594 223.761719 "/>
<path style="fill-rule:nonzero;fill:rgb(18.431373%,30.980392%,30.980392%);fill-opacity:0.901961;stroke-width:0.708661;stroke-linecap:round;stroke-linejoin:round;stroke:rgb(18.431373%,30.980392%,30.980392%);stroke-opacity:0.901961;stroke-miterlimit:10;" d="M 197.179688 213.058594 C 197.179688 216.199219 194.632813 218.75 191.488281 218.75 C 188.347656 218.75 185.800781 216.199219 185.800781 213.058594 C 185.800781 209.917969 188.347656 207.371094 191.488281 207.371094 C 194.632813 207.371094 197.179688 209.917969 197.179688 213.058594 "/>
<path style="fill-rule:nonzero;fill:rgb(18.431373%,30.980392%,30.980392%);fill-opacity:0.901961;stroke-width:0.708661;stroke-linecap:round;stroke-linejoin:round;stroke:rgb(18.431373%,30.980392%,30.980392%);stroke-opacity:0.901961;stroke-miterlimit:10;" d="M 452.15625 423.492188 C 452.15625 426.636719 449.609375 429.183594 446.464844 429.183594 C 443.324219 429.183594 440.777344 426.636719 440.777344 423.492188 C 440.777344 420.351563 443.324219 417.804688 446.464844 417.804688 C 449.609375 417.804688 452.15625 420.351563 452.15625 423.492188 "/>
<path style="fill-rule:nonzero;fill:rgb(18.431373%,30.980392%,30.980392%);fill-opacity:0.901961;stroke-width:0.708661;stroke-linecap:round;stroke-linejoin:round;stroke:rgb(18.431373%,30.980392%,30.980392%);stroke-opacity:0.901961;stroke-miterlimit:10;" d="M 396.382813 298.929688 C 396.382813 302.074219 393.835938 304.621094 390.695313 304.621094 C 387.550781 304.621094 385.003906 302.074219 385.003906 298.929688 C 385.003906 295.789063 387.550781 293.242188 390.695313 293.242188 C 393.835938 293.242188 396.382813 295.789063 396.382813 298.929688 "/>
<path style="fill-rule:nonzero;fill:rgb(18.431373%,30.980392%,30.980392%);fill-opacity:0.901961;stroke-width:0.708661;stroke-linecap:round;stroke-linejoin:round;stroke:rgb(18.431373%,30.980392%,30.980392%);stroke-opacity:0.901961;stroke-miterlimit:10;" d="M 314.226563 202.558594 C 314.226563 205.699219 311.679688 208.246094 308.539063 208.246094 C 305.394531 208.246094 302.847656 205.699219 302.847656 202.558594 C 302.847656 199.414063 305.394531 196.867188 308.539063 196.867188 C 311.679688 196.867188 314.226563 199.414063 314.226563 202.558594 "/>
<path style="fill-rule:nonzero;fill:rgb(18.431373%,30.980392%,30.980392%);fill-opacity:0.901961;stroke-width:0.708661;stroke-linecap:round;stroke-linejoin:round;stroke:rgb(18.431373%,30.980392%,30.980392%);stroke-opacity:0.901961;stroke-miterlimit:10;" d="M 401.765625 276.492188 C 401.765625 279.632813 399.21875 282.179688 396.078125 282.179688 C 392.933594 282.179688 390.386719 279.632813 390.386719 276.492188 C 390.386719 273.351563 392.933594 270.800781 396.078125 270.800781 C 399.21875 270.800781 401.765625 273.351563 401.765625 276.492188 "/>
<path style="fill-rule:nonzero;fill:rgb(18.431373%,30.980392%,30.980392%);fill-opacity:0.901961;stroke-width:0.708661;stroke-linecap:round;stroke-linejoin:round;stroke:rgb(18.431373%,30.980392%,30.980392%);stroke-opacity:0.901961;stroke-miterlimit:10;" d="M 395.175781 204.109375 C 395.175781 207.25 392.628906 209.796875 389.488281 209.796875 C 386.347656 209.796875 383.800781 207.25 383.800781 204.109375 C 383.800781 200.964844 386.347656 198.417969 389.488281 198.417969 C 392.628906 198.417969 395.175781 200.964844 395.175781 204.109375 "/>
<path style="fill-rule:nonzero;fill:rgb(18.431373%,30.980392%,30.980392%);fill-opacity:0.901961;stroke-width:0.708661;stroke-linecap:round;stroke-linejoin:round;stroke:rgb(18.431373%,30.980392%,30.980392%);stroke-opacity:0.901961;stroke-miterlimit:10;" d="M 282.226563 356.140625 C 282.226563 359.28125 279.679688 361.828125 276.535156 361.828125 C 273.394531 361.828125 270.847656 359.28125 270.847656 356.140625 C 270.847656 353 273.394531 350.449219 276.535156 350.449219 C 279.679688 350.449219 282.226563 353 282.226563 356.140625 "/>
<path style="fill-rule:nonzero;fill:rgb(18.431373%,30.980392%,30.980392%);fill-opacity:0.901961;stroke-width:0.708661;stroke-linecap:round;stroke-linejoin:round;stroke:rgb(18.431373%,30.980392%,30.980392%);stroke-opacity:0.901961;stroke-miterlimit:10;" d="M 482.886719 248.949219 C 482.886719 252.09375 480.339844 254.640625 477.199219 254.640625 C 474.058594 254.640625 471.507813 252.09375 471.507813 248.949219 C 471.507813 245.808594 474.058594 243.261719 477.199219 243.261719 C 480.339844 243.261719 482.886719 245.808594 482.886719 248.949219 "/>
<path style="fill-rule:nonzero;fill:rgb(18.431373%,30.980392%,30.980392%);fill-opacity:0.901961;stroke-width:0.708661;stroke-linecap:round;stroke-linejoin:round;stroke:rgb(18.431373%,30.980392%,30.980392%);stroke-opacity:0.901961;stroke-miterlimit:10;" d="M 581.113281 118.113281 C 581.113281 121.257813 578.566406 123.804688 575.421875 123.804688 C 572.28125 123.804688 569.734375 121.257813 569.734375 118.113281 C 569.734375 114.972656 572.28125 112.425781 575.421875 112.425781 C 578.566406 112.425781 581.113281 114.972656 581.113281 118.113281 "/>
<path style="fill-rule:nonzero;fill:rgb(18.431373%,30.980392%,30.980392%);fill-opacity:0.901961;stroke-width:0.708661;stroke-linecap:round;stroke-linejoin:round;stroke:rgb(18.431373%,30.980392%,30.980392%);stroke-opacity:0.901961;stroke-miterlimit:10;" d="M 300.5 374.671875 C 300.5 377.8125 297.953125 380.359375 294.808594 380.359375 C 291.667969 380.359375 289.121094 377.8125 289.121094 374.671875 C 289.121094 371.527344 291.667969 368.980469 294.808594 368.980469 C 297.953125 368.980469 300.5 371.527344 300.5 374.671875 "/>
<path style="fill-rule:nonzero;fill:rgb(18.431373%,30.980392%,30.980392%);fill-opacity:0.901961;stroke-width:0.708661;stroke-linecap:round;stroke-linejoin:round;stroke:rgb(18.431373%,30.980392%,30.980392%);stroke-opacity:0.901961;stroke-miterlimit:10;" d="M 256.464844 243.152344 C 256.464844 246.292969 253.917969 248.839844 250.773438 248.839844 C 247.632813 248.839844 245.085938 246.292969 245.085938 243.152344 C 245.085938 240.007813 247.632813 237.460938 250.773438 237.460938 C 253.917969 237.460938 256.464844 240.007813 256.464844 243.152344 "/>
<path style="fill-rule:nonzero;fill:rgb(18.431373%,30.980392%,30.980392%);fill-opacity:0.901961;stroke-width:0.708661;stroke-linecap:round;stroke-linejoin:round;stroke:rgb(18.431373%,30.980392%,30.980392%);stroke-opacity:0.901961;stroke-miterlimit:10;" d="M 402.265625 296.550781 C 402.265625 299.695313 399.71875 302.242188 396.578125 302.242188 C 393.433594 302.242188 390.886719 299.695313 390.886719 296.550781 C 390.886719 293.410156 393.433594 290.863281 396.578125 290.863281 C 399.71875 290.863281 402.265625 293.410156 402.265625 296.550781 "/>
<path style="fill-rule:nonzero;fill:rgb(18.431373%,30.980392%,30.980392%);fill-opacity:0.901961;stroke-width:0.708661;stroke-linecap:round;stroke-linejoin:round;stroke:rgb(18.431373%,30.980392%,30.980392%);stroke-opacity:0.901961;stroke-miterlimit:10;" d="M 309.050781 289.347656 C 309.050781 292.492188 306.503906 295.039063 303.363281 295.039063 C 300.21875 295.039063 297.671875 292.492188 297.671875 289.347656 C 297.671875 286.207031 300.21875 283.660156 303.363281 283.660156 C 306.503906 283.660156 309.050781 286.207031 309.050781 289.347656 "/>
<path style="fill-rule:nonzero;fill:rgb(18.431373%,30.980392%,30.980392%);fill-opacity:0.901961;stroke-width:0.708661;stroke-linecap:round;stroke-linejoin:round;stroke:rgb(18.431373%,30.980392%,30.980392%);stroke-opacity:0.901961;stroke-miterlimit:10;" d="M 591.9375 206.496094 C 591.9375 209.636719 589.390625 212.183594 586.25 212.183594 C 583.105469 212.183594 580.558594 209.636719 580.558594 206.496094 C 580.558594 203.351563 583.105469 200.804688 586.25 200.804688 C 589.390625 200.804688 591.9375 203.351563 591.9375 206.496094 "/>
<path style="fill-rule:nonzero;fill:rgb(18.431373%,30.980392%,30.980392%);fill-opacity:0.901961;stroke-width:0.708661;stroke-linecap:round;stroke-linejoin:round;stroke:rgb(18.431373%,30.980392%,30.980392%);stroke-opacity:0.901961;stroke-miterlimit:10;" d="M 297.921875 168.617188 C 297.921875 171.761719 295.375 174.308594 292.230469 174.308594 C 289.089844 174.308594 286.542969 171.761719 286.542969 168.617188 C 286.542969 165.476563 289.089844 162.929688 292.230469 162.929688 C 295.375 162.929688 297.921875 165.476563 297.921875 168.617188 "/>
<path style="fill-rule:nonzero;fill:rgb(18.431373%,30.980392%,30.980392%);fill-opacity:0.901961;stroke-width:0.708661;stroke-linecap:round;stroke-linejoin:round;stroke:rgb(18.431373%,30.980392%,30.980392%);stroke-opacity:0.901961;stroke-miterlimit:10;" d="M 470.050781 202.253906 C 470.050781 205.394531 467.503906 207.945313 464.363281 207.945313 C 461.21875 207.945313 458.671875 205.394531 458.671875 202.253906 C 458.671875 199.113281 461.21875 196.566406 464.363281 196.566406 C 467.503906 196.566406 470.050781 199.113281 470.050781 202.253906 "/>
<path style="fill-rule:nonzero;fill:rgb(18.431373%,30.980392%,30.980392%);fill-opacity:0.901961;stroke-width:0.708661;stroke-linecap:round;stroke-linejoin:round;stroke:rgb(18.431373%,30.980392%,30.980392%);stroke-opacity:0.901961;stroke-miterlimit:10;" d="M 567.011719 280.609375 C 567.011719 283.75 564.464844 286.300781 561.324219 286.300781 C 558.179688 286.300781 555.632813 283.75 555.632813 280.609375 C 555.632813 277.46875 558.179688 274.921875 561.324219 274.921875 C 564.464844 274.921875 567.011719 277.46875 567.011719 280.609375 "/>
<path style="fill-rule:nonzero;fill:rgb(18.431373%,30.980392%,30.980392%);fill-opacity:0.901961;stroke-width:0.708661;stroke-linecap:round;stroke-linejoin:round;stroke:rgb(18.431373%,30.980392%,30.980392%);stroke-opacity:0.901961;stroke-miterlimit:10;" d="M 726.796875 134.714844 C 726.796875 137.855469 724.25 140.402344 721.105469 140.402344 C 717.964844 140.402344 715.417969 137.855469 715.417969 134.714844 C 715.417969 131.570313 717.964844 129.023438 721.105469 129.023438 C 724.25 129.023438 726.796875 131.570313 726.796875 134.714844 "/>
<path style="fill-rule:nonzero;fill:rgb(18.431373%,30.980392%,30.980392%);fill-opacity:0.901961;stroke-width:0.708661;stroke-linecap:round;stroke-linejoin:round;stroke:rgb(18.431373%,30.980392%,30.980392%);stroke-opacity:0.901961;stroke-miterlimit:10;" d="M 424.839844 285.847656 C 424.839844 288.992188 422.292969 291.539063 419.148438 291.539063 C 416.007813 291.539063 413.460938 288.992188 413.460938 285.847656 C 413.460938 282.707031 416.007813 280.160156 419.148438 280.160156 C 422.292969 280.160156 424.839844 282.707031 424.839844 285.847656 "/>
<path style="fill-rule:nonzero;fill:rgb(18.431373%,30.980392%,30.980392%);fill-opacity:0.901961;stroke-width:0.708661;stroke-linecap:round;stroke-linejoin:round;stroke:rgb(18.431373%,30.980392%,30.980392%);stroke-opacity:0.901961;stroke-miterlimit:10;" d="M 613.835938 235.777344 C 613.835938 238.917969 611.289063 241.464844 608.148438 241.464844 C 605.007813 241.464844 602.460938 238.917969 602.460938 235.777344 C 602.460938 232.636719 605.007813 230.085938 608.148438 230.085938 C 611.289063 230.085938 613.835938 232.636719 613.835938 235.777344 "/>
<path style="fill-rule:nonzero;fill:rgb(18.431373%,30.980392%,30.980392%);fill-opacity:0.901961;stroke-width:0.708661;stroke-linecap:round;stroke-linejoin:round;stroke:rgb(18.431373%,30.980392%,30.980392%);stroke-opacity:0.901961;stroke-miterlimit:10;" d="M 449.230469 304.058594 C 449.230469 307.203125 446.683594 309.75 443.539063 309.75 C 440.398438 309.75 437.851563 307.203125 437.851563 304.058594 C 437.851563 300.917969 440.398438 298.371094 443.539063 298.371094 C 446.683594 298.371094 449.230469 300.917969 449.230469 304.058594 "/>
<path style="fill-rule:nonzero;fill:rgb(18.431373%,30.980392%,30.980392%);fill-opacity:0.901961;stroke-width:0.708661;stroke-linecap:round;stroke-linejoin:round;stroke:rgb(18.431373%,30.980392%,30.980392%);stroke-opacity:0.901961;stroke-miterlimit:10;" d="M 389.917969 287.925781 C 389.917969 291.066406 387.371094 293.613281 384.226563 293.613281 C 381.085938 293.613281 378.539063 291.066406 378.539063 287.925781 C 378.539063 284.785156 381.085938 282.238281 384.226563 282.238281 C 387.371094 282.238281 389.917969 284.785156 389.917969 287.925781 "/>
<path style="fill-rule:nonzero;fill:rgb(18.431373%,30.980392%,30.980392%);fill-opacity:0.901961;stroke-width:0.708661;stroke-linecap:round;stroke-linejoin:round;stroke:rgb(18.431373%,30.980392%,30.980392%);stroke-opacity:0.901961;stroke-miterlimit:10;" d="M 425.039063 269.105469 C 425.039063 272.246094 422.492188 274.792969 419.347656 274.792969 C 416.207031 274.792969 413.660156 272.246094 413.660156 269.105469 C 413.660156 265.960938 416.207031 263.414063 419.347656 263.414063 C 422.492188 263.414063 425.039063 265.960938 425.039063 269.105469 "/>
<path style="fill-rule:nonzero;fill:rgb(18.431373%,30.980392%,30.980392%);fill-opacity:0.901961;stroke-width:0.708661;stroke-linecap:round;stroke-linejoin:round;stroke:rgb(18.431373%,30.980392%,30.980392%);stroke-opacity:0.901961;stroke-miterlimit:10;" d="M 569.410156 244.023438 C 569.410156 247.164063 566.863281 249.710938 563.71875 249.710938 C 560.578125 249.710938 558.03125 247.164063 558.03125 244.023438 C 558.03125 240.878906 560.578125 238.332031 563.71875 238.332031 C 566.863281 238.332031 569.410156 240.878906 569.410156 244.023438 "/>
<path style="fill-rule:nonzero;fill:rgb(18.431373%,30.980392%,30.980392%);fill-opacity:0.901961;stroke-width:0.708661;stroke-linecap:round;stroke-linejoin:round;stroke:rgb(18.431373%,30.980392%,30.980392%);stroke-opacity:0.901961;stroke-miterlimit:10;" d="M 407.71875 260.554688 C 407.71875 263.699219 405.171875 266.246094 402.03125 266.246094 C 398.886719 266.246094 396.339844 263.699219 396.339844 260.554688 C 396.339844 257.414063 398.886719 254.867188 402.03125 254.867188 C 405.171875 254.867188 407.71875 257.414063 407.71875 260.554688 "/>
<path style="fill-rule:nonzero;fill:rgb(18.431373%,30.980392%,30.980392%);fill-opacity:0.901961;stroke-width:0.708661;stroke-linecap:round;stroke-linejoin:round;stroke:rgb(18.431373%,30.980392%,30.980392%);stroke-opacity:0.901961;stroke-miterlimit:10;" d="M 359.847656 200.914063 C 359.847656 204.058594 357.300781 206.605469 354.160156 206.605469 C 351.015625 206.605469 348.46875 204.058594 348.46875 200.914063 C 348.46875 197.773438 351.015625 195.226563 354.160156 195.226563 C 357.300781 195.226563 359.847656 197.773438 359.847656 200.914063 "/>
<path style="fill-rule:nonzero;fill:rgb(18.431373%,30.980392%,30.980392%);fill-opacity:0.901961;stroke-width:0.708661;stroke-linecap:round;stroke-linejoin:round;stroke:rgb(18.431373%,30.980392%,30.980392%);stroke-opacity:0.901961;stroke-miterlimit:10;" d="M 265.75 271.929688 C 265.75 275.070313 263.203125 277.617188 260.058594 277.617188 C 256.917969 277.617188 254.371094 275.070313 254.371094 271.929688 C 254.371094 268.789063 256.917969 266.242188 260.058594 266.242188 C 263.203125 266.242188 265.75 268.789063 265.75 271.929688 "/>
<path style="fill-rule:nonzero;fill:rgb(18.431373%,30.980392%,30.980392%);fill-opacity:0.901961;stroke-width:0.708661;stroke-linecap:round;stroke-linejoin:round;stroke:rgb(18.431373%,30.980392%,30.980392%);stroke-opacity:0.901961;stroke-miterlimit:10;" d="M 127.714844 379.671875 C 127.714844 382.8125 125.167969 385.359375 122.027344 385.359375 C 118.882813 385.359375 116.335938 382.8125 116.335938 379.671875 C 116.335938 376.527344 118.882813 373.980469 122.027344 373.980469 C 125.167969 373.980469 127.714844 376.527344 127.714844 379.671875 "/>
<path style="fill-rule:nonzero;fill:rgb(18.431373%,30.980392%,30.980392%);fill-opacity:0.901961;stroke-width:0.708661;stroke-linecap:round;stroke-linejoin:round;stroke:rgb(18.431373%,30.980392%,30.980392%);stroke-opacity:0.901961;stroke-miterlimit:10;" d="M 542.859375 97.414063 C 542.859375 100.558594 540.3125 103.105469 537.171875 103.105469 C 534.027344 103.105469 531.480469 100.558594 531.480469 97.414063 C 531.480469 94.273438 534.027344 91.726563 537.171875 91.726563 C 540.3125 91.726563 542.859375 94.273438 542.859375 97.414063 "/>
<path style="fill-rule:nonzero;fill:rgb(18.431373%,30.980392%,30.980392%);fill-opacity:0.901961;stroke-width:0.708661;stroke-linecap:round;stroke-linejoin:round;stroke:rgb(18.431373%,30.980392%,30.980392%);stroke-opacity:0.901961;stroke-miterlimit:10;" d="M 289.832031 257.300781 C 289.832031 260.445313 287.285156 262.992188 284.140625 262.992188 C 281 262.992188 278.453125 260.445313 278.453125 257.300781 C 278.453125 254.160156 281 251.613281 284.140625 251.613281 C 287.285156 251.613281 289.832031 254.160156 289.832031 257.300781 "/>
<path style="fill-rule:nonzero;fill:rgb(18.431373%,30.980392%,30.980392%);fill-opacity:0.901961;stroke-width:0.708661;stroke-linecap:round;stroke-linejoin:round;stroke:rgb(18.431373%,30.980392%,30.980392%);stroke-opacity:0.901961;stroke-miterlimit:10;" d="M 438.398438 316.722656 C 438.398438 319.863281 435.851563 322.410156 432.710938 322.410156 C 429.566406 322.410156 427.019531 319.863281 427.019531 316.722656 C 427.019531 313.582031 429.566406 311.03125 432.710938 311.03125 C 435.851563 311.03125 438.398438 313.582031 438.398438 316.722656 "/>
<path style="fill-rule:nonzero;fill:rgb(18.431373%,30.980392%,30.980392%);fill-opacity:0.901961;stroke-width:0.708661;stroke-linecap:round;stroke-linejoin:round;stroke:rgb(18.431373%,30.980392%,30.980392%);stroke-opacity:0.901961;stroke-miterlimit:10;" d="M 484.996094 202.261719 C 484.996094 205.402344 482.449219 207.949219 479.308594 207.949219 C 476.164063 207.949219 473.617188 205.402344 473.617188 202.261719 C 473.617188 199.117188 476.164063 196.570313 479.308594 196.570313 C 482.449219 196.570313 484.996094 199.117188 484.996094 202.261719 "/>
<path style="fill-rule:nonzero;fill:rgb(18.431373%,30.980392%,30.980392%);fill-opacity:0.901961;stroke-width:0.708661;stroke-linecap:round;stroke-linejoin:round;stroke:rgb(18.431373%,30.980392%,30.980392%);stroke-opacity:0.901961;stroke-miterlimit:10;" d="M 511.207031 203.613281 C 511.207031 206.753906 508.65625 209.300781 505.515625 209.300781 C 502.375 209.300781 499.828125 206.753906 499.828125 203.613281 C 499.828125 200.46875 502.375 197.921875 505.515625 197.921875 C 508.65625 197.921875 511.207031 200.46875 511.207031 203.613281 "/>
<path style="fill-rule:nonzero;fill:rgb(18.431373%,30.980392%,30.980392%);fill-opacity:0.901961;stroke-width:0.708661;stroke-linecap:round;stroke-linejoin:round;stroke:rgb(18.431373%,30.980392%,30.980392%);stroke-opacity:0.901961;stroke-miterlimit:10;" d="M 254.152344 356.125 C 254.152344 359.265625 251.605469 361.8125 248.464844 361.8125 C 245.324219 361.8125 242.777344 359.265625 242.777344 356.125 C 242.777344 352.980469 245.324219 350.433594 248.464844 350.433594 C 251.605469 350.433594 254.152344 352.980469 254.152344 356.125 "/>
<path style="fill-rule:nonzero;fill:rgb(18.431373%,30.980392%,30.980392%);fill-opacity:0.901961;stroke-width:0.708661;stroke-linecap:round;stroke-linejoin:round;stroke:rgb(18.431373%,30.980392%,30.980392%);stroke-opacity:0.901961;stroke-miterlimit:10;" d="M 654.203125 62.605469 C 654.203125 65.746094 651.65625 68.292969 648.515625 68.292969 C 645.371094 68.292969 642.824219 65.746094 642.824219 62.605469 C 642.824219 59.460938 645.371094 56.914063 648.515625 56.914063 C 651.65625 56.914063 654.203125 59.460938 654.203125 62.605469 "/>
<path style="fill-rule:nonzero;fill:rgb(18.431373%,30.980392%,30.980392%);fill-opacity:0.901961;stroke-width:0.708661;stroke-linecap:round;stroke-linejoin:round;stroke:rgb(18.431373%,30.980392%,30.980392%);stroke-opacity:0.901961;stroke-miterlimit:10;" d="M 655.703125 160.785156 C 655.703125 163.929688 653.15625 166.476563 650.015625 166.476563 C 646.875 166.476563 644.328125 163.929688 644.328125 160.785156 C 644.328125 157.644531 646.875 155.097656 650.015625 155.097656 C 653.15625 155.097656 655.703125 157.644531 655.703125 160.785156 "/>
<path style="fill-rule:nonzero;fill:rgb(18.431373%,30.980392%,30.980392%);fill-opacity:0.901961;stroke-width:0.708661;stroke-linecap:round;stroke-linejoin:round;stroke:rgb(18.431373%,30.980392%,30.980392%);stroke-opacity:0.901961;stroke-miterlimit:10;" d="M 580.554688 169.386719 C 580.554688 172.53125 578.007813 175.078125 574.867188 175.078125 C 571.722656 175.078125 569.175781 172.53125 569.175781 169.386719 C 569.175781 166.246094 571.722656 163.699219 574.867188 163.699219 C 578.007813 163.699219 580.554688 166.246094 580.554688 169.386719 "/>
<path style="fill-rule:nonzero;fill:rgb(18.431373%,30.980392%,30.980392%);fill-opacity:0.901961;stroke-width:0.708661;stroke-linecap:round;stroke-linejoin:round;stroke:rgb(18.431373%,30.980392%,30.980392%);stroke-opacity:0.901961;stroke-miterlimit:10;" d="M 478.371094 260.296875 C 478.371094 263.4375 475.824219 265.984375 472.679688 265.984375 C 469.539063 265.984375 466.992188 263.4375 466.992188 260.296875 C 466.992188 257.152344 469.539063 254.605469 472.679688 254.605469 C 475.824219 254.605469 478.371094 257.152344 478.371094 260.296875 "/>
<path style="fill-rule:nonzero;fill:rgb(18.431373%,30.980392%,30.980392%);fill-opacity:0.901961;stroke-width:0.708661;stroke-linecap:round;stroke-linejoin:round;stroke:rgb(18.431373%,30.980392%,30.980392%);stroke-opacity:0.901961;stroke-miterlimit:10;" d="M 392.707031 234.75 C 392.707031 237.890625 390.160156 240.4375 387.019531 240.4375 C 383.875 240.4375 381.328125 237.890625 381.328125 234.75 C 381.328125 231.605469 383.875 229.058594 387.019531 229.058594 C 390.160156 229.058594 392.707031 231.605469 392.707031 234.75 "/>
<path style="fill-rule:nonzero;fill:rgb(18.431373%,30.980392%,30.980392%);fill-opacity:0.901961;stroke-width:0.708661;stroke-linecap:round;stroke-linejoin:round;stroke:rgb(18.431373%,30.980392%,30.980392%);stroke-opacity:0.901961;stroke-miterlimit:10;" d="M 479.566406 207.765625 C 479.566406 210.910156 477.019531 213.457031 473.878906 213.457031 C 470.738281 213.457031 468.1875 210.910156 468.1875 207.765625 C 468.1875 204.625 470.738281 202.078125 473.878906 202.078125 C 477.019531 202.078125 479.566406 204.625 479.566406 207.765625 "/>
<path style="fill-rule:nonzero;fill:rgb(18.431373%,30.980392%,30.980392%);fill-opacity:0.901961;stroke-width:0.708661;stroke-linecap:round;stroke-linejoin:round;stroke:rgb(18.431373%,30.980392%,30.980392%);stroke-opacity:0.901961;stroke-miterlimit:10;" d="M 510.144531 175.800781 C 510.144531 178.941406 507.597656 181.488281 504.453125 181.488281 C 501.3125 181.488281 498.765625 178.941406 498.765625 175.800781 C 498.765625 172.65625 501.3125 170.109375 504.453125 170.109375 C 507.597656 170.109375 510.144531 172.65625 510.144531 175.800781 "/>
<path style="fill-rule:nonzero;fill:rgb(18.431373%,30.980392%,30.980392%);fill-opacity:0.901961;stroke-width:0.708661;stroke-linecap:round;stroke-linejoin:round;stroke:rgb(18.431373%,30.980392%,30.980392%);stroke-opacity:0.901961;stroke-miterlimit:10;" d="M 554.5625 262.484375 C 554.5625 265.625 552.015625 268.175781 548.875 268.175781 C 545.734375 268.175781 543.1875 265.625 543.1875 262.484375 C 543.1875 259.34375 545.734375 256.796875 548.875 256.796875 C 552.015625 256.796875 554.5625 259.34375 554.5625 262.484375 "/>
<path style="fill-rule:nonzero;fill:rgb(18.431373%,30.980392%,30.980392%);fill-opacity:0.901961;stroke-width:0.708661;stroke-linecap:round;stroke-linejoin:round;stroke:rgb(18.431373%,30.980392%,30.980392%);stroke-opacity:0.901961;stroke-miterlimit:10;" d="M 330.875 257.738281 C 330.875 260.878906 328.328125 263.425781 325.1875 263.425781 C 322.042969 263.425781 319.496094 260.878906 319.496094 257.738281 C 319.496094 254.59375 322.042969 252.046875 325.1875 252.046875 C 328.328125 252.046875 330.875 254.59375 330.875 257.738281 "/>
<path style="fill-rule:nonzero;fill:rgb(18.431373%,30.980392%,30.980392%);fill-opacity:0.901961;stroke-width:0.708661;stroke-linecap:round;stroke-linejoin:round;stroke:rgb(18.431373%,30.980392%,30.980392%);stroke-opacity:0.901961;stroke-miterlimit:10;" d="M 340.484375 286.347656 C 340.484375 289.492188 337.9375 292.039063 334.796875 292.039063 C 331.652344 292.039063 329.105469 289.492188 329.105469 286.347656 C 329.105469 283.207031 331.652344 280.660156 334.796875 280.660156 C 337.9375 280.660156 340.484375 283.207031 340.484375 286.347656 "/>
<path style="fill-rule:nonzero;fill:rgb(18.431373%,30.980392%,30.980392%);fill-opacity:0.901961;stroke-width:0.708661;stroke-linecap:round;stroke-linejoin:round;stroke:rgb(18.431373%,30.980392%,30.980392%);stroke-opacity:0.901961;stroke-miterlimit:10;" d="M 359.527344 289.738281 C 359.527344 292.882813 356.980469 295.429688 353.839844 295.429688 C 350.699219 295.429688 348.152344 292.882813 348.152344 289.738281 C 348.152344 286.597656 350.699219 284.050781 353.839844 284.050781 C 356.980469 284.050781 359.527344 286.597656 359.527344 289.738281 "/>
<path style="fill-rule:nonzero;fill:rgb(18.431373%,30.980392%,30.980392%);fill-opacity:0.901961;stroke-width:0.708661;stroke-linecap:round;stroke-linejoin:round;stroke:rgb(18.431373%,30.980392%,30.980392%);stroke-opacity:0.901961;stroke-miterlimit:10;" d="M 241.671875 252.054688 C 241.671875 255.199219 239.121094 257.746094 235.980469 257.746094 C 232.839844 257.746094 230.292969 255.199219 230.292969 252.054688 C 230.292969 248.914063 232.839844 246.367188 235.980469 246.367188 C 239.121094 246.367188 241.671875 248.914063 241.671875 252.054688 "/>
<path style="fill-rule:nonzero;fill:rgb(18.431373%,30.980392%,30.980392%);fill-opacity:0.901961;stroke-width:0.708661;stroke-linecap:round;stroke-linejoin:round;stroke:rgb(18.431373%,30.980392%,30.980392%);stroke-opacity:0.901961;stroke-miterlimit:10;" d="M 466.605469 163.132813 C 466.605469 166.273438 464.058594 168.820313 460.917969 168.820313 C 457.773438 168.820313 455.226563 166.273438 455.226563 163.132813 C 455.226563 159.988281 457.773438 157.441406 460.917969 157.441406 C 464.058594 157.441406 466.605469 159.988281 466.605469 163.132813 "/>
<path style="fill-rule:nonzero;fill:rgb(18.431373%,30.980392%,30.980392%);fill-opacity:0.901961;stroke-width:0.708661;stroke-linecap:round;stroke-linejoin:round;stroke:rgb(18.431373%,30.980392%,30.980392%);stroke-opacity:0.901961;stroke-miterlimit:10;" d="M 474.121094 238.484375 C 474.121094 241.628906 471.574219 244.175781 468.433594 244.175781 C 465.289063 244.175781 462.742188 241.628906 462.742188 238.484375 C 462.742188 235.34375 465.289063 232.796875 468.433594 232.796875 C 471.574219 232.796875 474.121094 235.34375 474.121094 238.484375 "/>
<path style="fill-rule:nonzero;fill:rgb(18.431373%,30.980392%,30.980392%);fill-opacity:0.901961;stroke-width:0.708661;stroke-linecap:round;stroke-linejoin:round;stroke:rgb(18.431373%,30.980392%,30.980392%);stroke-opacity:0.901961;stroke-miterlimit:10;" d="M 620.261719 223.917969 C 620.261719 227.058594 617.714844 229.605469 614.574219 229.605469 C 611.429688 229.605469 608.882813 227.058594 608.882813 223.917969 C 608.882813 220.773438 611.429688 218.226563 614.574219 218.226563 C 617.714844 218.226563 620.261719 220.773438 620.261719 223.917969 "/>
<path style="fill-rule:nonzero;fill:rgb(18.431373%,30.980392%,30.980392%);fill-opacity:0.901961;stroke-width:0.708661;stroke-linecap:round;stroke-linejoin:round;stroke:rgb(18.431373%,30.980392%,30.980392%);stroke-opacity:0.901961;stroke-miterlimit:10;" d="M 312.003906 256.6875 C 312.003906 259.828125 309.457031 262.375 306.316406 262.375 C 303.171875 262.375 300.625 259.828125 300.625 256.6875 C 300.625 253.546875 303.171875 250.996094 306.316406 250.996094 C 309.457031 250.996094 312.003906 253.546875 312.003906 256.6875 "/>
<path style="fill-rule:nonzero;fill:rgb(18.431373%,30.980392%,30.980392%);fill-opacity:0.901961;stroke-width:0.708661;stroke-linecap:round;stroke-linejoin:round;stroke:rgb(18.431373%,30.980392%,30.980392%);stroke-opacity:0.901961;stroke-miterlimit:10;" d="M 238.449219 334.554688 C 238.449219 337.699219 235.902344 340.246094 232.761719 340.246094 C 229.617188 340.246094 227.070313 337.699219 227.070313 334.554688 C 227.070313 331.414063 229.617188 328.867188 232.761719 328.867188 C 235.902344 328.867188 238.449219 331.414063 238.449219 334.554688 "/>
<path style="fill-rule:nonzero;fill:rgb(18.431373%,30.980392%,30.980392%);fill-opacity:0.901961;stroke-width:0.708661;stroke-linecap:round;stroke-linejoin:round;stroke:rgb(18.431373%,30.980392%,30.980392%);stroke-opacity:0.901961;stroke-miterlimit:10;" d="M 547.113281 233.457031 C 547.113281 236.597656 544.566406 239.144531 541.425781 239.144531 C 538.28125 239.144531 535.734375 236.597656 535.734375 233.457031 C 535.734375 230.3125 538.28125 227.765625 541.425781 227.765625 C 544.566406 227.765625 547.113281 230.3125 547.113281 233.457031 "/>
<path style="fill-rule:nonzero;fill:rgb(18.431373%,30.980392%,30.980392%);fill-opacity:0.901961;stroke-width:0.708661;stroke-linecap:round;stroke-linejoin:round;stroke:rgb(18.431373%,30.980392%,30.980392%);stroke-opacity:0.901961;stroke-miterlimit:10;" d="M 472.636719 293.738281 C 472.636719 296.878906 470.089844 299.425781 466.945313 299.425781 C 463.804688 299.425781 461.257813 296.878906 461.257813 293.738281 C 461.257813 290.59375 463.804688 288.046875 466.945313 288.046875 C 470.089844 288.046875 472.636719 290.59375 472.636719 293.738281 "/>
<path style="fill-rule:nonzero;fill:rgb(18.431373%,30.980392%,30.980392%);fill-opacity:0.901961;stroke-width:0.708661;stroke-linecap:round;stroke-linejoin:round;stroke:rgb(18.431373%,30.980392%,30.980392%);stroke-opacity:0.901961;stroke-miterlimit:10;" d="M 302.535156 317.023438 C 302.535156 320.164063 299.988281 322.710938 296.84375 322.710938 C 293.703125 322.710938 291.15625 320.164063 291.15625 317.023438 C 291.15625 313.878906 293.703125 311.332031 296.84375 311.332031 C 299.988281 311.332031 302.535156 313.878906 302.535156 317.023438 "/>
<path style="fill-rule:nonzero;fill:rgb(18.431373%,30.980392%,30.980392%);fill-opacity:0.901961;stroke-width:0.708661;stroke-linecap:round;stroke-linejoin:round;stroke:rgb(18.431373%,30.980392%,30.980392%);stroke-opacity:0.901961;stroke-miterlimit:10;" d="M 456.429688 261.195313 C 456.429688 264.335938 453.882813 266.882813 450.742188 266.882813 C 447.597656 266.882813 445.050781 264.335938 445.050781 261.195313 C 445.050781 258.050781 447.597656 255.503906 450.742188 255.503906 C 453.882813 255.503906 456.429688 258.050781 456.429688 261.195313 "/>
<path style="fill-rule:nonzero;fill:rgb(18.431373%,30.980392%,30.980392%);fill-opacity:0.901961;stroke-width:0.708661;stroke-linecap:round;stroke-linejoin:round;stroke:rgb(18.431373%,30.980392%,30.980392%);stroke-opacity:0.901961;stroke-miterlimit:10;" d="M 533.882813 142.144531 C 533.882813 145.289063 531.335938 147.835938 528.195313 147.835938 C 525.054688 147.835938 522.507813 145.289063 522.507813 142.144531 C 522.507813 139.003906 525.054688 136.457031 528.195313 136.457031 C 531.335938 136.457031 533.882813 139.003906 533.882813 142.144531 "/>
<path style="fill-rule:nonzero;fill:rgb(18.431373%,30.980392%,30.980392%);fill-opacity:0.901961;stroke-width:0.708661;stroke-linecap:round;stroke-linejoin:round;stroke:rgb(18.431373%,30.980392%,30.980392%);stroke-opacity:0.901961;stroke-miterlimit:10;" d="M 311.847656 190.371094 C 311.847656 193.511719 309.300781 196.058594 306.160156 196.058594 C 303.019531 196.058594 300.472656 193.511719 300.472656 190.371094 C 300.472656 187.230469 303.019531 184.683594 306.160156 184.683594 C 309.300781 184.683594 311.847656 187.230469 311.847656 190.371094 "/>
<path style="fill-rule:nonzero;fill:rgb(18.431373%,30.980392%,30.980392%);fill-opacity:0.901961;stroke-width:0.708661;stroke-linecap:round;stroke-linejoin:round;stroke:rgb(18.431373%,30.980392%,30.980392%);stroke-opacity:0.901961;stroke-miterlimit:10;" d="M 595.089844 193.117188 C 595.089844 196.261719 592.542969 198.808594 589.402344 198.808594 C 586.257813 198.808594 583.710938 196.261719 583.710938 193.117188 C 583.710938 189.976563 586.257813 187.429688 589.402344 187.429688 C 592.542969 187.429688 595.089844 189.976563 595.089844 193.117188 "/>
<path style="fill-rule:nonzero;fill:rgb(18.431373%,30.980392%,30.980392%);fill-opacity:0.901961;stroke-width:0.708661;stroke-linecap:round;stroke-linejoin:round;stroke:rgb(18.431373%,30.980392%,30.980392%);stroke-opacity:0.901961;stroke-miterlimit:10;" d="M 433.832031 261.855469 C 433.832031 264.996094 431.285156 267.542969 428.140625 267.542969 C 425 267.542969 422.453125 264.996094 422.453125 261.855469 C 422.453125 258.710938 425 256.164063 428.140625 256.164063 C 431.285156 256.164063 433.832031 258.710938 433.832031 261.855469 "/>
<path style="fill-rule:nonzero;fill:rgb(18.431373%,30.980392%,30.980392%);fill-opacity:0.901961;stroke-width:0.708661;stroke-linecap:round;stroke-linejoin:round;stroke:rgb(18.431373%,30.980392%,30.980392%);stroke-opacity:0.901961;stroke-miterlimit:10;" d="M 45.898438 391.050781 C 45.898438 394.191406 43.351563 396.738281 40.207031 396.738281 C 37.066406 396.738281 34.519531 394.191406 34.519531 391.050781 C 34.519531 387.90625 37.066406 385.359375 40.207031 385.359375 C 43.351563 385.359375 45.898438 387.90625 45.898438 391.050781 "/>
<path style="fill-rule:nonzero;fill:rgb(18.431373%,30.980392%,30.980392%);fill-opacity:0.901961;stroke-width:0.708661;stroke-linecap:round;stroke-linejoin:round;stroke:rgb(18.431373%,30.980392%,30.980392%);stroke-opacity:0.901961;stroke-miterlimit:10;" d="M 79.269531 379.289063 C 79.269531 382.429688 76.722656 384.976563 73.582031 384.976563 C 70.4375 384.976563 67.890625 382.429688 67.890625 379.289063 C 67.890625 376.148438 70.4375 373.601563 73.582031 373.601563 C 76.722656 373.601563 79.269531 376.148438 79.269531 379.289063 "/>
<path style="fill-rule:nonzero;fill:rgb(18.431373%,30.980392%,30.980392%);fill-opacity:0.901961;stroke-width:0.708661;stroke-linecap:round;stroke-linejoin:round;stroke:rgb(18.431373%,30.980392%,30.980392%);stroke-opacity:0.901961;stroke-miterlimit:10;" d="M 443.785156 204.453125 C 443.785156 207.59375 441.238281 210.140625 438.097656 210.140625 C 434.953125 210.140625 432.40625 207.59375 432.40625 204.453125 C 432.40625 201.308594 434.953125 198.761719 438.097656 198.761719 C 441.238281 198.761719 443.785156 201.308594 443.785156 204.453125 "/>
<path style="fill-rule:nonzero;fill:rgb(18.431373%,30.980392%,30.980392%);fill-opacity:0.901961;stroke-width:0.708661;stroke-linecap:round;stroke-linejoin:round;stroke:rgb(18.431373%,30.980392%,30.980392%);stroke-opacity:0.901961;stroke-miterlimit:10;" d="M 297.117188 222.199219 C 297.117188 225.339844 294.570313 227.886719 291.429688 227.886719 C 288.285156 227.886719 285.738281 225.339844 285.738281 222.199219 C 285.738281 219.058594 288.285156 216.511719 291.429688 216.511719 C 294.570313 216.511719 297.117188 219.058594 297.117188 222.199219 "/>
<path style="fill-rule:nonzero;fill:rgb(18.431373%,30.980392%,30.980392%);fill-opacity:0.901961;stroke-width:0.708661;stroke-linecap:round;stroke-linejoin:round;stroke:rgb(18.431373%,30.980392%,30.980392%);stroke-opacity:0.901961;stroke-miterlimit:10;" d="M 339.175781 293.121094 C 339.175781 296.265625 336.628906 298.8125 333.488281 298.8125 C 330.347656 298.8125 327.796875 296.265625 327.796875 293.121094 C 327.796875 289.980469 330.347656 287.433594 333.488281 287.433594 C 336.628906 287.433594 339.175781 289.980469 339.175781 293.121094 "/>
<path style="fill-rule:nonzero;fill:rgb(18.431373%,30.980392%,30.980392%);fill-opacity:0.901961;stroke-width:0.708661;stroke-linecap:round;stroke-linejoin:round;stroke:rgb(18.431373%,30.980392%,30.980392%);stroke-opacity:0.901961;stroke-miterlimit:10;" d="M 414.59375 180.777344 C 414.59375 183.917969 412.046875 186.464844 408.90625 186.464844 C 405.761719 186.464844 403.214844 183.917969 403.214844 180.777344 C 403.214844 177.636719 405.761719 175.089844 408.90625 175.089844 C 412.046875 175.089844 414.59375 177.636719 414.59375 180.777344 "/>
<path style="fill-rule:nonzero;fill:rgb(18.431373%,30.980392%,30.980392%);fill-opacity:0.901961;stroke-width:0.708661;stroke-linecap:round;stroke-linejoin:round;stroke:rgb(18.431373%,30.980392%,30.980392%);stroke-opacity:0.901961;stroke-miterlimit:10;" d="M 378.796875 257.910156 C 378.796875 261.054688 376.25 263.601563 373.109375 263.601563 C 369.964844 263.601563 367.417969 261.054688 367.417969 257.910156 C 367.417969 254.769531 369.964844 252.222656 373.109375 252.222656 C 376.25 252.222656 378.796875 254.769531 378.796875 257.910156 "/>
<path style="fill-rule:nonzero;fill:rgb(18.431373%,30.980392%,30.980392%);fill-opacity:0.901961;stroke-width:0.708661;stroke-linecap:round;stroke-linejoin:round;stroke:rgb(18.431373%,30.980392%,30.980392%);stroke-opacity:0.901961;stroke-miterlimit:10;" d="M 286.746094 353.9375 C 286.746094 357.078125 284.199219 359.625 281.054688 359.625 C 277.914063 359.625 275.367188 357.078125 275.367188 353.9375 C 275.367188 350.792969 277.914063 348.246094 281.054688 348.246094 C 284.199219 348.246094 286.746094 350.792969 286.746094 353.9375 "/>
<path style="fill-rule:nonzero;fill:rgb(18.431373%,30.980392%,30.980392%);fill-opacity:0.901961;stroke-width:0.708661;stroke-linecap:round;stroke-linejoin:round;stroke:rgb(18.431373%,30.980392%,30.980392%);stroke-opacity:0.901961;stroke-miterlimit:10;" d="M 246.570313 299.238281 C 246.570313 302.382813 244.023438 304.929688 240.878906 304.929688 C 237.738281 304.929688 235.191406 302.382813 235.191406 299.238281 C 235.191406 296.097656 237.738281 293.550781 240.878906 293.550781 C 244.023438 293.550781 246.570313 296.097656 246.570313 299.238281 "/>
<path style="fill-rule:nonzero;fill:rgb(18.431373%,30.980392%,30.980392%);fill-opacity:0.901961;stroke-width:0.708661;stroke-linecap:round;stroke-linejoin:round;stroke:rgb(18.431373%,30.980392%,30.980392%);stroke-opacity:0.901961;stroke-miterlimit:10;" d="M 348.957031 250.824219 C 348.957031 253.964844 346.410156 256.511719 343.269531 256.511719 C 340.125 256.511719 337.578125 253.964844 337.578125 250.824219 C 337.578125 247.683594 340.125 245.136719 343.269531 245.136719 C 346.410156 245.136719 348.957031 247.683594 348.957031 250.824219 "/>
<path style="fill-rule:nonzero;fill:rgb(18.431373%,30.980392%,30.980392%);fill-opacity:0.901961;stroke-width:0.708661;stroke-linecap:round;stroke-linejoin:round;stroke:rgb(18.431373%,30.980392%,30.980392%);stroke-opacity:0.901961;stroke-miterlimit:10;" d="M 648.152344 228.878906 C 648.152344 232.023438 645.605469 234.570313 642.464844 234.570313 C 639.320313 234.570313 636.773438 232.023438 636.773438 228.878906 C 636.773438 225.738281 639.320313 223.191406 642.464844 223.191406 C 645.605469 223.191406 648.152344 225.738281 648.152344 228.878906 "/>
<path style="fill-rule:nonzero;fill:rgb(18.431373%,30.980392%,30.980392%);fill-opacity:0.901961;stroke-width:0.708661;stroke-linecap:round;stroke-linejoin:round;stroke:rgb(18.431373%,30.980392%,30.980392%);stroke-opacity:0.901961;stroke-miterlimit:10;" d="M 587.832031 237.503906 C 587.832031 240.648438 585.285156 243.195313 582.144531 243.195313 C 579.003906 243.195313 576.457031 240.648438 576.457031 237.503906 C 576.457031 234.363281 579.003906 231.816406 582.144531 231.816406 C 585.285156 231.816406 587.832031 234.363281 587.832031 237.503906 "/>
<path style="fill-rule:nonzero;fill:rgb(18.431373%,30.980392%,30.980392%);fill-opacity:0.901961;stroke-width:0.708661;stroke-linecap:round;stroke-linejoin:round;stroke:rgb(18.431373%,30.980392%,30.980392%);stroke-opacity:0.901961;stroke-miterlimit:10;" d="M 387.289063 190.265625 C 387.289063 193.40625 384.742188 195.953125 381.601563 195.953125 C 378.457031 195.953125 375.910156 193.40625 375.910156 190.265625 C 375.910156 187.125 378.457031 184.578125 381.601563 184.578125 C 384.742188 184.578125 387.289063 187.125 387.289063 190.265625 "/>
<path style="fill-rule:nonzero;fill:rgb(18.431373%,30.980392%,30.980392%);fill-opacity:0.901961;stroke-width:0.708661;stroke-linecap:round;stroke-linejoin:round;stroke:rgb(18.431373%,30.980392%,30.980392%);stroke-opacity:0.901961;stroke-miterlimit:10;" d="M 347.667969 196.933594 C 347.667969 200.074219 345.121094 202.621094 341.980469 202.621094 C 338.835938 202.621094 336.289063 200.074219 336.289063 196.933594 C 336.289063 193.792969 338.835938 191.242188 341.980469 191.242188 C 345.121094 191.242188 347.667969 193.792969 347.667969 196.933594 "/>
<path style="fill-rule:nonzero;fill:rgb(18.431373%,30.980392%,30.980392%);fill-opacity:0.901961;stroke-width:0.708661;stroke-linecap:round;stroke-linejoin:round;stroke:rgb(18.431373%,30.980392%,30.980392%);stroke-opacity:0.901961;stroke-miterlimit:10;" d="M 118.714844 221.675781 C 118.714844 224.816406 116.167969 227.367188 113.027344 227.367188 C 109.882813 227.367188 107.335938 224.816406 107.335938 221.675781 C 107.335938 218.535156 109.882813 215.988281 113.027344 215.988281 C 116.167969 215.988281 118.714844 218.535156 118.714844 221.675781 "/>
<path style="fill-rule:nonzero;fill:rgb(18.431373%,30.980392%,30.980392%);fill-opacity:0.901961;stroke-width:0.708661;stroke-linecap:round;stroke-linejoin:round;stroke:rgb(18.431373%,30.980392%,30.980392%);stroke-opacity:0.901961;stroke-miterlimit:10;" d="M 359.933594 321.382813 C 359.933594 324.527344 357.386719 327.074219 354.246094 327.074219 C 351.101563 327.074219 348.554688 324.527344 348.554688 321.382813 C 348.554688 318.242188 351.101563 315.695313 354.246094 315.695313 C 357.386719 315.695313 359.933594 318.242188 359.933594 321.382813 "/>
<path style="fill-rule:nonzero;fill:rgb(18.431373%,30.980392%,30.980392%);fill-opacity:0.901961;stroke-width:0.708661;stroke-linecap:round;stroke-linejoin:round;stroke:rgb(18.431373%,30.980392%,30.980392%);stroke-opacity:0.901961;stroke-miterlimit:10;" d="M 473.492188 229.6875 C 473.492188 232.828125 470.945313 235.375 467.800781 235.375 C 464.660156 235.375 462.113281 232.828125 462.113281 229.6875 C 462.113281 226.546875 464.660156 224 467.800781 224 C 470.945313 224 473.492188 226.546875 473.492188 229.6875 "/>
<path style="fill-rule:nonzero;fill:rgb(18.431373%,30.980392%,30.980392%);fill-opacity:0.901961;stroke-width:0.708661;stroke-linecap:round;stroke-linejoin:round;stroke:rgb(18.431373%,30.980392%,30.980392%);stroke-opacity:0.901961;stroke-miterlimit:10;" d="M 202.855469 256.21875 C 202.855469 259.359375 200.308594 261.90625 197.167969 261.90625 C 194.023438 261.90625 191.476563 259.359375 191.476563 256.21875 C 191.476563 253.078125 194.023438 250.527344 197.167969 250.527344 C 200.308594 250.527344 202.855469 253.078125 202.855469 256.21875 "/>
<path style="fill-rule:nonzero;fill:rgb(18.431373%,30.980392%,30.980392%);fill-opacity:0.901961;stroke-width:0.708661;stroke-linecap:round;stroke-linejoin:round;stroke:rgb(18.431373%,30.980392%,30.980392%);stroke-opacity:0.901961;stroke-miterlimit:10;" d="M 498.703125 176.820313 C 498.703125 179.960938 496.15625 182.507813 493.011719 182.507813 C 489.871094 182.507813 487.324219 179.960938 487.324219 176.820313 C 487.324219 173.675781 489.871094 171.128906 493.011719 171.128906 C 496.15625 171.128906 498.703125 173.675781 498.703125 176.820313 "/>
<path style="fill-rule:nonzero;fill:rgb(18.431373%,30.980392%,30.980392%);fill-opacity:0.901961;stroke-width:0.708661;stroke-linecap:round;stroke-linejoin:round;stroke:rgb(18.431373%,30.980392%,30.980392%);stroke-opacity:0.901961;stroke-miterlimit:10;" d="M 507.34375 227.539063 C 507.34375 230.679688 504.796875 233.226563 501.652344 233.226563 C 498.511719 233.226563 495.964844 230.679688 495.964844 227.539063 C 495.964844 224.394531 498.511719 221.847656 501.652344 221.847656 C 504.796875 221.847656 507.34375 224.394531 507.34375 227.539063 "/>
<path style="fill-rule:nonzero;fill:rgb(18.431373%,30.980392%,30.980392%);fill-opacity:0.901961;stroke-width:0.708661;stroke-linecap:round;stroke-linejoin:round;stroke:rgb(18.431373%,30.980392%,30.980392%);stroke-opacity:0.901961;stroke-miterlimit:10;" d="M 211.710938 211.480469 C 211.710938 214.621094 209.164063 217.167969 206.019531 217.167969 C 202.878906 217.167969 200.332031 214.621094 200.332031 211.480469 C 200.332031 208.339844 202.878906 205.789063 206.019531 205.789063 C 209.164063 205.789063 211.710938 208.339844 211.710938 211.480469 "/>
<path style="fill-rule:nonzero;fill:rgb(18.431373%,30.980392%,30.980392%);fill-opacity:0.901961;stroke-width:0.708661;stroke-linecap:round;stroke-linejoin:round;stroke:rgb(18.431373%,30.980392%,30.980392%);stroke-opacity:0.901961;stroke-miterlimit:10;" d="M 539.691406 70.121094 C 539.691406 73.265625 537.144531 75.8125 534.003906 75.8125 C 530.859375 75.8125 528.3125 73.265625 528.3125 70.121094 C 528.3125 66.980469 530.859375 64.433594 534.003906 64.433594 C 537.144531 64.433594 539.691406 66.980469 539.691406 70.121094 "/>
<path style="fill-rule:nonzero;fill:rgb(18.431373%,30.980392%,30.980392%);fill-opacity:0.901961;stroke-width:0.708661;stroke-linecap:round;stroke-linejoin:round;stroke:rgb(18.431373%,30.980392%,30.980392%);stroke-opacity:0.901961;stroke-miterlimit:10;" d="M 329.847656 270.894531 C 329.847656 274.035156 327.300781 276.582031 324.160156 276.582031 C 321.015625 276.582031 318.46875 274.035156 318.46875 270.894531 C 318.46875 267.75 321.015625 265.203125 324.160156 265.203125 C 327.300781 265.203125 329.847656 267.75 329.847656 270.894531 "/>
<path style="fill-rule:nonzero;fill:rgb(18.431373%,30.980392%,30.980392%);fill-opacity:0.901961;stroke-width:0.708661;stroke-linecap:round;stroke-linejoin:round;stroke:rgb(18.431373%,30.980392%,30.980392%);stroke-opacity:0.901961;stroke-miterlimit:10;" d="M 306.914063 337.515625 C 306.914063 340.65625 304.367188 343.203125 301.222656 343.203125 C 298.082031 343.203125 295.535156 340.65625 295.535156 337.515625 C 295.535156 334.371094 298.082031 331.824219 301.222656 331.824219 C 304.367188 331.824219 306.914063 334.371094 306.914063 337.515625 "/>
<path style="fill-rule:nonzero;fill:rgb(18.431373%,30.980392%,30.980392%);fill-opacity:0.901961;stroke-width:0.708661;stroke-linecap:round;stroke-linejoin:round;stroke:rgb(18.431373%,30.980392%,30.980392%);stroke-opacity:0.901961;stroke-miterlimit:10;" d="M 508.199219 217.769531 C 508.199219 220.910156 505.652344 223.457031 502.511719 223.457031 C 499.367188 223.457031 496.820313 220.910156 496.820313 217.769531 C 496.820313 214.628906 499.367188 212.082031 502.511719 212.082031 C 505.652344 212.082031 508.199219 214.628906 508.199219 217.769531 "/>
<path style="fill-rule:nonzero;fill:rgb(18.431373%,30.980392%,30.980392%);fill-opacity:0.901961;stroke-width:0.708661;stroke-linecap:round;stroke-linejoin:round;stroke:rgb(18.431373%,30.980392%,30.980392%);stroke-opacity:0.901961;stroke-miterlimit:10;" d="M 433.304688 331.050781 C 433.304688 334.191406 430.757813 336.738281 427.613281 336.738281 C 424.472656 336.738281 421.925781 334.191406 421.925781 331.050781 C 421.925781 327.90625 424.472656 325.359375 427.613281 325.359375 C 430.757813 325.359375 433.304688 327.90625 433.304688 331.050781 "/>
<path style="fill-rule:nonzero;fill:rgb(18.431373%,30.980392%,30.980392%);fill-opacity:0.901961;stroke-width:0.708661;stroke-linecap:round;stroke-linejoin:round;stroke:rgb(18.431373%,30.980392%,30.980392%);stroke-opacity:0.901961;stroke-miterlimit:10;" d="M 320.765625 227.242188 C 320.765625 230.386719 318.21875 232.933594 315.078125 232.933594 C 311.933594 232.933594 309.386719 230.386719 309.386719 227.242188 C 309.386719 224.101563 311.933594 221.554688 315.078125 221.554688 C 318.21875 221.554688 320.765625 224.101563 320.765625 227.242188 "/>
<path style="fill-rule:nonzero;fill:rgb(18.431373%,30.980392%,30.980392%);fill-opacity:0.901961;stroke-width:0.708661;stroke-linecap:round;stroke-linejoin:round;stroke:rgb(18.431373%,30.980392%,30.980392%);stroke-opacity:0.901961;stroke-miterlimit:10;" d="M 199.210938 360.753906 C 199.210938 363.894531 196.660156 366.441406 193.519531 366.441406 C 190.378906 366.441406 187.832031 363.894531 187.832031 360.753906 C 187.832031 357.613281 190.378906 355.066406 193.519531 355.066406 C 196.660156 355.066406 199.210938 357.613281 199.210938 360.753906 "/>
<path style="fill-rule:nonzero;fill:rgb(18.431373%,30.980392%,30.980392%);fill-opacity:0.901961;stroke-width:0.708661;stroke-linecap:round;stroke-linejoin:round;stroke:rgb(18.431373%,30.980392%,30.980392%);stroke-opacity:0.901961;stroke-miterlimit:10;" d="M 516.515625 167.5625 C 516.515625 170.707031 513.96875 173.253906 510.824219 173.253906 C 507.683594 173.253906 505.136719 170.707031 505.136719 167.5625 C 505.136719 164.421875 507.683594 161.875 510.824219 161.875 C 513.96875 161.875 516.515625 164.421875 516.515625 167.5625 "/>
<path style="fill-rule:nonzero;fill:rgb(18.431373%,30.980392%,30.980392%);fill-opacity:0.901961;stroke-width:0.708661;stroke-linecap:round;stroke-linejoin:round;stroke:rgb(18.431373%,30.980392%,30.980392%);stroke-opacity:0.901961;stroke-miterlimit:10;" d="M 212.683594 316.621094 C 212.683594 319.765625 210.136719 322.3125 206.996094 322.3125 C 203.851563 322.3125 201.304688 319.765625 201.304688 316.621094 C 201.304688 313.480469 203.851563 310.933594 206.996094 310.933594 C 210.136719 310.933594 212.683594 313.480469 212.683594 316.621094 "/>
<path style="fill-rule:nonzero;fill:rgb(18.431373%,30.980392%,30.980392%);fill-opacity:0.901961;stroke-width:0.708661;stroke-linecap:round;stroke-linejoin:round;stroke:rgb(18.431373%,30.980392%,30.980392%);stroke-opacity:0.901961;stroke-miterlimit:10;" d="M 93.1875 331.980469 C 93.1875 335.121094 90.640625 337.667969 87.496094 337.667969 C 84.355469 337.667969 81.808594 335.121094 81.808594 331.980469 C 81.808594 328.839844 84.355469 326.292969 87.496094 326.292969 C 90.640625 326.292969 93.1875 328.839844 93.1875 331.980469 "/>
<path style="fill-rule:nonzero;fill:rgb(18.431373%,30.980392%,30.980392%);fill-opacity:0.901961;stroke-width:0.708661;stroke-linecap:round;stroke-linejoin:round;stroke:rgb(18.431373%,30.980392%,30.980392%);stroke-opacity:0.901961;stroke-miterlimit:10;" d="M 522 266.152344 C 522 269.292969 519.449219 271.839844 516.308594 271.839844 C 513.167969 271.839844 510.621094 269.292969 510.621094 266.152344 C 510.621094 263.007813 513.167969 260.460938 516.308594 260.460938 C 519.449219 260.460938 522 263.007813 522 266.152344 "/>
<path style="fill-rule:nonzero;fill:rgb(18.431373%,30.980392%,30.980392%);fill-opacity:0.901961;stroke-width:0.708661;stroke-linecap:round;stroke-linejoin:round;stroke:rgb(18.431373%,30.980392%,30.980392%);stroke-opacity:0.901961;stroke-miterlimit:10;" d="M 506.777344 198.730469 C 506.777344 201.871094 504.230469 204.417969 501.089844 204.417969 C 497.945313 204.417969 495.398438 201.871094 495.398438 198.730469 C 495.398438 195.585938 497.945313 193.039063 501.089844 193.039063 C 504.230469 193.039063 506.777344 195.585938 506.777344 198.730469 "/>
<path style="fill-rule:nonzero;fill:rgb(18.431373%,30.980392%,30.980392%);fill-opacity:0.901961;stroke-width:0.708661;stroke-linecap:round;stroke-linejoin:round;stroke:rgb(18.431373%,30.980392%,30.980392%);stroke-opacity:0.901961;stroke-miterlimit:10;" d="M 462.492188 246.066406 C 462.492188 249.207031 459.945313 251.753906 456.804688 251.753906 C 453.660156 251.753906 451.113281 249.207031 451.113281 246.066406 C 451.113281 242.921875 453.660156 240.375 456.804688 240.375 C 459.945313 240.375 462.492188 242.921875 462.492188 246.066406 "/>
<path style="fill-rule:nonzero;fill:rgb(18.431373%,30.980392%,30.980392%);fill-opacity:0.901961;stroke-width:0.708661;stroke-linecap:round;stroke-linejoin:round;stroke:rgb(18.431373%,30.980392%,30.980392%);stroke-opacity:0.901961;stroke-miterlimit:10;" d="M 28.921875 358.996094 C 28.921875 362.136719 26.375 364.683594 23.234375 364.683594 C 20.089844 364.683594 17.542969 362.136719 17.542969 358.996094 C 17.542969 355.851563 20.089844 353.304688 23.234375 353.304688 C 26.375 353.304688 28.921875 355.851563 28.921875 358.996094 "/>
<path style="fill-rule:nonzero;fill:rgb(18.431373%,30.980392%,30.980392%);fill-opacity:0.901961;stroke-width:0.708661;stroke-linecap:round;stroke-linejoin:round;stroke:rgb(18.431373%,30.980392%,30.980392%);stroke-opacity:0.901961;stroke-miterlimit:10;" d="M 336.101563 268.621094 C 336.101563 271.761719 333.554688 274.308594 330.410156 274.308594 C 327.269531 274.308594 324.722656 271.761719 324.722656 268.621094 C 324.722656 265.476563 327.269531 262.929688 330.410156 262.929688 C 333.554688 262.929688 336.101563 265.476563 336.101563 268.621094 "/>
<path style="fill-rule:nonzero;fill:rgb(18.431373%,30.980392%,30.980392%);fill-opacity:0.901961;stroke-width:0.708661;stroke-linecap:round;stroke-linejoin:round;stroke:rgb(18.431373%,30.980392%,30.980392%);stroke-opacity:0.901961;stroke-miterlimit:10;" d="M 389.742188 191.339844 C 389.742188 194.480469 387.195313 197.027344 384.050781 197.027344 C 380.910156 197.027344 378.363281 194.480469 378.363281 191.339844 C 378.363281 188.195313 380.910156 185.648438 384.050781 185.648438 C 387.195313 185.648438 389.742188 188.195313 389.742188 191.339844 "/>
<path style="fill-rule:nonzero;fill:rgb(18.431373%,30.980392%,30.980392%);fill-opacity:0.901961;stroke-width:0.708661;stroke-linecap:round;stroke-linejoin:round;stroke:rgb(18.431373%,30.980392%,30.980392%);stroke-opacity:0.901961;stroke-miterlimit:10;" d="M 555.832031 267.730469 C 555.832031 270.871094 553.285156 273.417969 550.144531 273.417969 C 547 273.417969 544.453125 270.871094 544.453125 267.730469 C 544.453125 264.585938 547 262.039063 550.144531 262.039063 C 553.285156 262.039063 555.832031 264.585938 555.832031 267.730469 "/>
<path style="fill-rule:nonzero;fill:rgb(18.431373%,30.980392%,30.980392%);fill-opacity:0.901961;stroke-width:0.708661;stroke-linecap:round;stroke-linejoin:round;stroke:rgb(18.431373%,30.980392%,30.980392%);stroke-opacity:0.901961;stroke-miterlimit:10;" d="M 422.578125 244.8125 C 422.578125 247.953125 420.03125 250.5 416.890625 250.5 C 413.746094 250.5 411.199219 247.953125 411.199219 244.8125 C 411.199219 241.667969 413.746094 239.121094 416.890625 239.121094 C 420.03125 239.121094 422.578125 241.667969 422.578125 244.8125 "/>
<path style="fill-rule:nonzero;fill:rgb(18.431373%,30.980392%,30.980392%);fill-opacity:0.901961;stroke-width:0.708661;stroke-linecap:round;stroke-linejoin:round;stroke:rgb(18.431373%,30.980392%,30.980392%);stroke-opacity:0.901961;stroke-miterlimit:10;" d="M 186.675781 310.867188 C 186.675781 314.007813 184.128906 316.554688 180.988281 316.554688 C 177.847656 316.554688 175.296875 314.007813 175.296875 310.867188 C 175.296875 307.722656 177.847656 305.175781 180.988281 305.175781 C 184.128906 305.175781 186.675781 307.722656 186.675781 310.867188 "/>
<path style="fill:none;stroke-width:4.267913;stroke-linecap:butt;stroke-linejoin:round;stroke:rgb(100%,64.705882%,0%);stroke-opacity:0.901961;stroke-miterlimit:10;" d="M 0 73.03125 L 756 369.402344 "/>
</g>
</svg>
